<svg width="573" height="170" viewBox="0 0 573 170" fill="none" xmlns="http://www.w3.org/2000/svg">
<path d="M467.12 0.0199966H40.45C38.89 0.0199966 37.36 0.0199988 35.81 0.0299988C34.51 0.0399988 33.22 0.0599942 31.91 0.0799942C29.06 0.109994 26.22 0.359994 23.41 0.829994C20.6 1.30999 17.89 2.2 15.35 3.49C12.81 4.79 10.5 6.48 8.48 8.49C6.46 10.5 4.77 12.82 3.48 15.37C2.19 17.91 1.3 20.63 0.830002 23.44C0.360002 26.25 0.0999921 29.08 0.0699921 31.93C0.0299921 33.23 0.02 34.53 0 35.84V133.87C0.02 135.19 0.0299921 136.46 0.0699921 137.78C0.0999921 140.62 0.360002 143.46 0.830002 146.27C1.3 149.08 2.19 151.81 3.48 154.35C4.77 156.88 6.45 159.2 8.48 161.19C10.49 163.21 12.8 164.9 15.34 166.19C17.88 167.48 20.6 168.38 23.4 168.87C26.21 169.33 29.05 169.58 31.9 169.62C33.21 169.65 34.5 169.66 35.8 169.66C37.35 169.67 38.89 169.67 40.44 169.67H532.36C533.88 169.67 535.43 169.67 536.96 169.66C538.25 169.66 539.58 169.64 540.87 169.61C543.71 169.58 546.55 169.33 549.35 168.86C552.17 168.38 554.89 167.47 557.44 166.18C559.98 164.89 562.3 163.2 564.3 161.18C566.32 159.18 568.01 156.86 569.31 154.34C570.59 151.8 571.48 149.07 571.94 146.26C572.41 143.45 572.67 140.62 572.73 137.77C572.75 136.45 572.75 135.18 572.75 133.86C572.78 132.32 572.78 130.79 572.78 129.22V40.46C572.78 38.91 572.78 37.37 572.75 35.83C572.75 34.53 572.75 33.23 572.73 31.92C572.68 29.08 572.42 26.24 571.94 23.43C571.48 20.62 570.59 17.9 569.31 15.36C566.69 10.26 562.54 6.1 557.44 3.48C554.89 2.19 552.16 1.3 549.35 0.82C546.54 0.35 543.71 0.0999997 540.87 0.0699997C539.58 0.0499997 538.25 0.0199945 536.96 0.00999451C535.44 -5.49294e-06 533.89 0 532.36 0H467.12V0.0199966Z" fill="#CCCED3"/>
<path d="M35.8297 165.96C34.5397 165.96 33.2797 165.94 31.9997 165.92C29.3397 165.88 26.6897 165.65 24.0697 165.23C21.6197 164.81 19.2597 164.02 17.0397 162.9C14.8497 161.79 12.8497 160.34 11.1197 158.59C9.35972 156.86 7.89972 154.86 6.78972 152.67C5.66972 150.46 4.88972 148.09 4.48972 145.64C4.05972 143.01 3.81972 140.35 3.78972 137.69C3.75972 136.8 3.71973 133.82 3.71973 133.82V35.85C3.71973 35.85 3.75972 32.91 3.78972 32.06C3.81972 29.4 4.05972 26.74 4.48972 24.12C4.88972 21.67 5.66973 19.29 6.79973 17.07C7.90973 14.87 9.35973 12.87 11.1097 11.14C12.8497 9.39 14.8597 7.93 17.0497 6.8C19.2597 5.69 21.6197 4.91 24.0597 4.5C26.6897 4.07 29.3497 3.83 32.0097 3.8L35.8397 3.75H536.95L540.82 3.81C543.46 3.84 546.1 4.07 548.7 4.5C551.16 4.92 553.55 5.69999 555.79 6.82999C560.19 9.09999 563.77 12.69 566.03 17.09C567.13 19.3 567.9 21.65 568.3 24.08C568.74 26.73 568.99 29.4 569.04 32.08C569.05 33.28 569.05 34.57 569.05 35.86C569.08 37.45 569.08 38.96 569.08 40.49V129.25C569.08 130.79 569.08 132.29 569.05 133.81C569.05 135.19 569.05 136.45 569.03 137.75C568.98 140.38 568.74 143.01 568.31 145.61C567.92 148.07 567.14 150.46 566.02 152.69C564.9 154.86 563.45 156.85 561.71 158.57C559.98 160.32 557.97 161.79 555.77 162.91C553.54 164.04 551.16 164.83 548.7 165.24C546.08 165.66 543.43 165.9 540.77 165.93C539.53 165.96 538.23 165.98 536.96 165.98L532.36 165.99L35.8297 165.96Z" fill="#FBFBFB"/>
<path d="M138.65 84.3808C138.75 76.9008 142.67 69.9908 149.04 66.0708C145 60.3008 138.48 56.7708 131.44 56.5508C124.03 55.7708 116.86 60.9808 113.08 60.9808C109.23 60.9808 103.42 56.6208 97.17 56.7508C88.94 57.0208 81.45 61.5908 77.44 68.7808C68.91 83.5508 75.27 105.251 83.44 117.191C87.53 123.041 92.31 129.561 98.56 129.331C104.68 129.081 106.96 125.431 114.35 125.431C121.66 125.431 123.81 129.331 130.19 129.181C136.75 129.081 140.89 123.311 144.83 117.411C147.77 113.241 150.03 108.641 151.53 103.771C143.73 100.481 138.66 92.8408 138.65 84.3808ZM126.61 48.7008C130.19 44.4008 131.95 38.8808 131.53 33.3008C126.06 33.8708 121.01 36.4908 117.38 40.6208C113.8 44.7008 111.98 50.0308 112.34 55.4408C117.87 55.5008 123.13 53.0108 126.61 48.7008Z" fill="#010202"/>
<path d="M212.05 115.13H191.98L187.15 129.36H178.65L197.66 76.6903H206.49L225.51 129.36H216.86L212.05 115.13ZM194.05 108.56H209.96L202.11 85.4603H201.89C201.9 85.4603 194.05 108.56 194.05 108.56ZM266.58 110.16C266.58 122.09 260.19 129.76 250.55 129.76C245.57 130.02 240.88 127.41 238.47 123.04H238.29V142.06H230.41V90.9603H238.04V97.3503H238.18C240.69 93.0103 245.39 90.4003 250.41 90.5603C260.16 90.5703 266.58 98.2703 266.58 110.16ZM258.48 110.16C258.48 102.39 254.46 97.2803 248.33 97.2803C242.31 97.2803 238.26 102.5 238.26 110.17C238.26 117.91 242.31 123.09 248.33 123.09C254.46 123.09 258.48 118.01 258.48 110.16ZM308.84 110.16C308.84 122.09 302.45 129.76 292.81 129.76C287.83 130.02 283.14 127.41 280.73 123.04H280.55V142.06H272.67V90.9603H280.3V97.3503H280.44C282.96 93.0103 287.65 90.4003 292.67 90.5603C302.42 90.5703 308.84 98.2703 308.84 110.16ZM300.74 110.16C300.74 102.39 296.72 97.2803 290.59 97.2803C284.57 97.2803 280.52 102.5 280.52 110.17C280.52 117.91 284.57 123.09 290.59 123.09C296.72 123.09 300.74 118.01 300.74 110.16ZM336.77 114.69C337.36 119.91 342.43 123.34 349.36 123.34C356 123.34 360.78 119.91 360.78 115.2C360.78 111.11 357.9 108.67 351.07 106.99L344.24 105.35C334.57 103.01 330.08 98.4903 330.08 91.1503C330.08 82.0603 338 75.8203 349.24 75.8203C360.37 75.8203 368 82.0603 368.26 91.1503H360.3C359.82 85.8903 355.48 82.7203 349.13 82.7203C342.78 82.7203 338.44 85.9303 338.44 90.6003C338.44 94.3303 341.22 96.5103 348.01 98.1903L353.81 99.6203C364.62 102.17 369.1 106.52 369.1 114.22C369.1 124.07 361.25 130.25 348.77 130.25C337.09 130.25 329.2 124.22 328.69 114.7C328.7 114.69 336.77 114.69 336.77 114.69ZM386.13 81.8803V90.9703H393.43V97.2103H386.13V118.38C386.13 121.67 387.59 123.2 390.8 123.2C391.67 123.18 392.53 123.12 393.39 123.02V129.22C391.94 129.49 390.48 129.61 389.01 129.59C381.24 129.59 378.2 126.67 378.2 119.23V97.2203H372.61V90.9803H378.2V81.8803H386.13ZM397.65 110.16C397.65 98.0803 404.77 90.4903 415.86 90.4903C426.99 90.4903 434.08 98.0803 434.08 110.16C434.08 122.28 427.03 129.83 415.86 129.83C404.7 129.84 397.65 122.28 397.65 110.16ZM426.05 110.16C426.05 101.87 422.25 96.9803 415.86 96.9803C409.48 96.9803 405.68 101.91 405.68 110.16C405.68 118.48 409.48 123.33 415.86 123.33C422.25 123.34 426.05 118.49 426.05 110.16ZM440.58 90.9603H448.1V97.4903H448.28C449.33 93.2803 453.18 90.3903 457.51 90.5503C458.42 90.5503 459.33 90.6503 460.21 90.8403V98.2103C459.06 97.8603 457.87 97.7003 456.67 97.7303C454.35 97.6403 452.11 98.5603 450.53 100.26C448.95 101.96 448.19 104.26 448.46 106.57V129.34H440.57V90.9603H440.58ZM496.56 118.08C495.5 125.05 488.71 129.83 480.03 129.83C468.86 129.83 461.93 122.35 461.93 110.34C461.93 98.3003 468.9 90.4803 479.7 90.4803C490.32 90.4803 497 97.7803 497 109.42V112.12H469.88V112.6C469.63 115.46 470.61 118.29 472.59 120.37C474.57 122.45 477.34 123.58 480.21 123.48C484.04 123.84 487.64 121.64 489.08 118.08H496.56ZM469.91 106.62H489.11C489.25 104.05 488.32 101.54 486.53 99.6903C484.74 97.8403 482.26 96.8203 479.69 96.8703C477.1 96.8503 474.61 97.8703 472.77 99.7103C470.94 101.54 469.9 104.03 469.91 106.62Z" fill="#010202"/>
<path d="M193.07 37.0508C196.42 36.8108 199.69 38.0808 202 40.5208C204.31 42.9508 205.4 46.2908 204.98 49.6208C204.98 57.7108 200.61 62.3508 193.07 62.3508H183.93V37.0408H193.07V37.0508ZM187.86 58.7808H192.63C195.02 58.9208 197.35 57.9808 198.97 56.2208C200.59 54.4608 201.33 52.0508 200.98 49.6808C201.3 47.3208 200.56 44.9408 198.94 43.1908C197.32 41.4408 195.01 40.5008 192.63 40.6308H187.86V58.7808ZM209.41 52.8008C209.08 49.3708 210.72 46.0608 213.64 44.2508C216.56 42.4308 220.26 42.4308 223.18 44.2508C226.1 46.0608 227.74 49.3708 227.41 52.8008C227.74 56.2308 226.11 59.5408 223.18 61.3608C220.26 63.1808 216.56 63.1808 213.63 61.3608C210.72 59.5508 209.08 56.2308 209.41 52.8008ZM223.55 52.8008C223.55 48.6608 221.69 46.2408 218.43 46.2408C215.15 46.2408 213.31 48.6608 213.31 52.8008C213.31 56.9808 215.15 59.3808 218.43 59.3808C221.69 59.3808 223.55 56.9608 223.55 52.8008ZM251.37 62.3608H247.46L243.51 48.3008H243.21L239.28 62.3608H235.41L230.14 43.2608H233.96L237.38 57.8308H237.66L241.58 43.2608H245.2L249.12 57.8308H249.42L252.82 43.2608H256.59L251.37 62.3608ZM261.04 43.2608H264.67V46.2908H264.95C265.93 44.0608 268.22 42.6908 270.65 42.8908C272.53 42.7508 274.38 43.4708 275.66 44.8508C276.95 46.2308 277.54 48.1208 277.26 49.9908V62.3508H273.49V50.9308C273.49 47.8608 272.16 46.3408 269.37 46.3408C268.09 46.2808 266.85 46.7808 265.98 47.7108C265.1 48.6408 264.68 49.9108 264.81 51.1808V62.3508H261.04V43.2608ZM283.27 35.8008H287.04V62.3508H283.27V35.8008ZM292.27 52.8008C291.94 49.3708 293.58 46.0608 296.51 44.2508C299.43 42.4308 303.13 42.4308 306.05 44.2508C308.97 46.0608 310.62 49.3708 310.29 52.8008C310.62 56.2308 308.99 59.5408 306.06 61.3608C303.13 63.1808 299.43 63.1808 296.51 61.3608C293.58 59.5508 291.94 56.2308 292.27 52.8008ZM306.41 52.8008C306.41 48.6608 304.55 46.2408 301.29 46.2408C298.01 46.2408 296.17 48.6608 296.17 52.8008C296.17 56.9808 298.01 59.3808 301.29 59.3808C304.55 59.3808 306.41 56.9608 306.41 52.8008ZM314.26 56.9608C314.26 53.5208 316.82 51.5408 321.36 51.2608L326.53 50.9608V49.3108C326.53 47.2908 325.2 46.1608 322.62 46.1608C320.52 46.1608 319.06 46.9308 318.64 48.2808H314.99C315.37 45.0008 318.46 42.9008 322.79 42.9008C327.58 42.9008 330.28 45.2808 330.28 49.3208V62.3708H326.65V59.6808H326.35C325.12 61.6408 322.92 62.7908 320.61 62.6808C318.99 62.8508 317.37 62.3208 316.16 61.2308C314.96 60.1408 314.26 58.5908 314.26 56.9608ZM326.53 55.3308V53.7308L321.86 54.0308C319.23 54.2108 318.04 55.1008 318.04 56.7908C318.04 58.5108 319.53 59.5108 321.58 59.5108C322.79 59.6308 324.01 59.2608 324.94 58.4708C325.88 57.6708 326.45 56.5408 326.53 55.3308ZM335.24 52.8008C335.24 46.7608 338.34 42.9408 343.17 42.9408C345.6 42.8308 347.89 44.1308 349.03 46.2908H349.31V35.8008H353.08V62.3608H349.47V59.3408H349.17C347.95 61.4808 345.63 62.7708 343.17 62.6708C338.31 62.6708 335.24 58.8508 335.24 52.8008ZM339.13 52.8008C339.13 56.8508 341.04 59.2908 344.23 59.2908C347.41 59.2908 349.37 56.8208 349.37 52.8208C349.37 48.8408 347.38 46.3308 344.23 46.3308C341.07 46.3308 339.13 48.7808 339.13 52.8008ZM368.67 52.8008C368.34 49.3708 369.98 46.0608 372.9 44.2508C375.82 42.4308 379.52 42.4308 382.44 44.2508C385.36 46.0608 387 49.3708 386.67 52.8008C387 56.2308 385.37 59.5408 382.44 61.3608C379.52 63.1808 375.82 63.1808 372.89 61.3608C369.97 59.5508 368.33 56.2308 368.67 52.8008ZM382.81 52.8008C382.81 48.6608 380.95 46.2408 377.69 46.2408C374.41 46.2408 372.57 48.6608 372.57 52.8008C372.57 56.9808 374.41 59.3808 377.69 59.3808C380.95 59.3808 382.81 56.9608 382.81 52.8008ZM391.74 43.2608H395.37V46.2908H395.65C396.63 44.0608 398.92 42.6908 401.35 42.8908C403.23 42.7508 405.08 43.4708 406.36 44.8508C407.65 46.2308 408.23 48.1208 407.96 49.9908V62.3508H404.19V50.9308C404.19 47.8608 402.86 46.3408 400.07 46.3408C398.79 46.2808 397.56 46.7808 396.68 47.7108C395.81 48.6408 395.38 49.9108 395.52 51.1808V62.3508H391.75V43.2608H391.74ZM429.26 38.5108V43.3508H433.4V46.5208H429.26V56.3408C429.26 58.3408 430.08 59.2208 431.96 59.2208C432.44 59.2208 432.92 59.1908 433.4 59.1308V62.2708C432.72 62.3908 432.04 62.4608 431.35 62.4708C427.16 62.4708 425.49 60.9908 425.49 57.3108V46.5208H422.45V43.3508H425.48V38.5108C425.48 38.5108 429.26 38.5108 429.26 38.5108ZM438.54 35.8008H442.28V46.3208H442.58C443.6 44.0708 445.93 42.7008 448.4 42.9008C450.27 42.8008 452.09 43.5408 453.37 44.9108C454.64 46.2908 455.23 48.1608 454.98 50.0208V62.3508H451.21V50.9408C451.21 47.8908 449.79 46.3408 447.13 46.3408C445.82 46.2308 444.53 46.7108 443.6 47.6508C442.67 48.5808 442.21 49.8808 442.32 51.1908V62.3508H438.55V35.8008H438.54ZM476.95 57.2008C475.89 60.8008 472.41 63.1308 468.67 62.7208C466.13 62.7908 463.68 61.7308 461.98 59.8308C460.28 57.9308 459.5 55.3808 459.85 52.8608C459.51 50.3308 460.29 47.7708 461.98 45.8608C463.67 43.9408 466.1 42.8608 468.66 42.8808C473.97 42.8808 477.18 46.5108 477.18 52.5108V53.8208H463.7V54.0308C463.58 55.4508 464.07 56.8508 465.03 57.8908C466 58.9308 467.36 59.5208 468.78 59.5008C470.63 59.7208 472.42 58.8108 473.33 57.1808L476.95 57.2008ZM463.7 51.0508H473.35C473.44 49.7508 472.99 48.4808 472.09 47.5408C471.2 46.5908 469.94 46.0808 468.64 46.1008C467.32 46.0808 466.05 46.6008 465.12 47.5408C464.19 48.4608 463.68 49.7308 463.7 51.0508Z" fill="#010202"/>
</svg>
