<svg width="63" height="63" viewBox="0 0 63 63" fill="none" xmlns="http://www.w3.org/2000/svg">
<g filter="url(#filter0_d_883_56)">
<circle cx="31.5" cy="27.5" r="27.5" fill="#FF0000"/>
<circle cx="31.5" cy="27.5" r="19.5" fill="white"/>
<g clip-path="url(#clip0_883_56)">
<path d="M32.8799 27.0001L38.6133 21.2801C38.8643 21.029 39.0054 20.6885 39.0054 20.3334C39.0054 19.9783 38.8643 19.6378 38.6133 19.3868C38.3622 19.1357 38.0217 18.9946 37.6666 18.9946C37.3115 18.9946 36.971 19.1357 36.7199 19.3868L30.9999 25.1201L25.2799 19.3868C25.0288 19.1357 24.6883 18.9946 24.3333 18.9946C23.9782 18.9946 23.6377 19.1357 23.3866 19.3868C23.1355 19.6378 22.9945 19.9783 22.9945 20.3334C22.9945 20.6885 23.1355 21.029 23.3866 21.2801L29.1199 27.0001L23.3866 32.7201C23.2616 32.844 23.1624 32.9915 23.0947 33.154C23.027 33.3165 22.9922 33.4907 22.9922 33.6667C22.9922 33.8428 23.027 34.017 23.0947 34.1795C23.1624 34.342 23.2616 34.4895 23.3866 34.6134C23.5105 34.7384 23.658 34.8376 23.8205 34.9053C23.983 34.973 24.1572 35.0078 24.3333 35.0078C24.5093 35.0078 24.6835 34.973 24.846 34.9053C25.0085 34.8376 25.156 34.7384 25.2799 34.6134L30.9999 28.8801L36.7199 34.6134C36.8439 34.7384 36.9913 34.8376 37.1538 34.9053C37.3163 34.973 37.4906 35.0078 37.6666 35.0078C37.8426 35.0078 38.0169 34.973 38.1794 34.9053C38.3418 34.8376 38.4893 34.7384 38.6133 34.6134C38.7382 34.4895 38.8374 34.342 38.9051 34.1795C38.9728 34.017 39.0077 33.8428 39.0077 33.6667C39.0077 33.4907 38.9728 33.3165 38.9051 33.154C38.8374 32.9915 38.7382 32.844 38.6133 32.7201L32.8799 27.0001Z" fill="#FF0000"/>
</g>
</g>
<defs>
<filter id="filter0_d_883_56" x="0" y="0" width="63" height="63" filterUnits="userSpaceOnUse" color-interpolation-filters="sRGB">
<feFlood flood-opacity="0" result="BackgroundImageFix"/>
<feColorMatrix in="SourceAlpha" type="matrix" values="0 0 0 0 0 0 0 0 0 0 0 0 0 0 0 0 0 0 127 0" result="hardAlpha"/>
<feOffset dy="4"/>
<feGaussianBlur stdDeviation="2"/>
<feComposite in2="hardAlpha" operator="out"/>
<feColorMatrix type="matrix" values="0 0 0 0 1 0 0 0 0 0 0 0 0 0 0 0 0 0 0.33 0"/>
<feBlend mode="normal" in2="BackgroundImageFix" result="effect1_dropShadow_883_56"/>
<feBlend mode="normal" in="SourceGraphic" in2="effect1_dropShadow_883_56" result="shape"/>
</filter>
<clipPath id="clip0_883_56">
<rect width="32" height="32" fill="white" transform="translate(15 11)"/>
</clipPath>
</defs>
</svg>
