<svg width="573" height="170" viewBox="0 0 573 170" fill="none" xmlns="http://www.w3.org/2000/svg">
<g clip-path="url(#clip0_915_56)">
<path fill-rule="evenodd" clip-rule="evenodd" d="M551.02 169.371H20.8701C9.21015 169.371 -0.339844 159.831 -0.339844 148.161V20.9307C-0.339844 9.27069 9.20015 -0.279297 20.8701 -0.279297H551.02C562.68 -0.279297 572.23 9.26069 572.23 20.9307V148.171C572.23 159.831 562.69 169.371 551.02 169.371Z" fill="#FBFBFB"/>
<path d="M238.63 130.32C248.631 130.32 256.74 122.243 256.74 112.28C256.74 102.317 248.631 94.2402 238.63 94.2402C228.628 94.2402 220.52 102.317 220.52 112.28C220.52 122.243 228.628 130.32 238.63 130.32Z" fill="black"/>
<path d="M278.13 130.32C288.131 130.32 296.24 122.243 296.24 112.28C296.24 102.317 288.131 94.2402 278.13 94.2402C268.128 94.2402 260.02 102.317 260.02 112.28C260.02 122.243 268.128 130.32 278.13 130.32Z" fill="black"/>
<path fill-rule="evenodd" clip-rule="evenodd" d="M551.02 -0.269531H20.8701C9.21015 -0.269531 -0.339844 9.27046 -0.339844 20.9405V148.18C-0.339844 159.84 9.20015 169.39 20.8701 169.39H551.02C562.68 169.39 572.23 159.85 572.23 148.18V20.9305C572.23 9.27045 562.69 -0.269531 551.02 -0.269531ZM551.02 3.12045C560.84 3.12045 568.83 11.1105 568.83 20.9305V148.17C568.83 157.99 560.84 165.98 551.02 165.98H20.8701C11.0501 165.98 3.06015 157.99 3.06015 148.17V20.9305C3.06015 11.1105 11.0501 3.12045 20.8701 3.12045H551.02Z" fill="#CCCED3"/>
<path fill-rule="evenodd" clip-rule="evenodd" d="M200.78 43.1696C200.78 46.7296 199.73 49.5496 197.62 51.6696C195.22 54.1796 192.11 55.4296 188.27 55.4296C184.6 55.4296 181.47 54.1596 178.91 51.6096C176.33 49.0696 175.05 45.8996 175.05 42.1396C175.05 38.3696 176.33 35.2096 178.91 32.6696C181.47 30.1296 184.6 28.8496 188.27 28.8496C190.09 28.8496 191.84 29.2096 193.49 29.9096C195.15 30.6196 196.48 31.5696 197.47 32.7496L195.23 34.9896C193.55 32.9796 191.23 31.9696 188.26 31.9696C185.58 31.9696 183.27 32.9096 181.31 34.7996C179.35 36.6896 178.38 39.1296 178.38 42.1396C178.38 45.1496 179.36 47.5896 181.31 49.4796C183.26 51.3696 185.58 52.2996 188.26 52.2996C191.1 52.2996 193.47 51.3496 195.37 49.4596C196.6 48.2196 197.31 46.5096 197.5 44.3096H188.26V41.2496H200.59C200.72 41.9096 200.78 42.5496 200.78 43.1696Z" fill="#010202"/>
<path d="M200.78 43.1696C200.78 46.7296 199.73 49.5496 197.62 51.6696C195.22 54.1796 192.11 55.4296 188.27 55.4296C184.6 55.4296 181.47 54.1596 178.91 51.6096C176.33 49.0696 175.05 45.8996 175.05 42.1396C175.05 38.3696 176.33 35.2096 178.91 32.6696C181.47 30.1296 184.6 28.8496 188.27 28.8496C190.09 28.8496 191.84 29.2096 193.49 29.9096C195.15 30.6196 196.48 31.5696 197.47 32.7496L195.23 34.9896C193.55 32.9796 191.23 31.9696 188.26 31.9696C185.58 31.9696 183.27 32.9096 181.31 34.7996C179.35 36.6896 178.38 39.1296 178.38 42.1396C178.38 45.1496 179.36 47.5896 181.31 49.4796C183.26 51.3696 185.58 52.2996 188.26 52.2996C191.1 52.2996 193.47 51.3496 195.37 49.4596C196.6 48.2196 197.31 46.5096 197.5 44.3096H188.26V41.2496H200.59C200.72 41.9096 200.78 42.5496 200.78 43.1696Z" stroke="#010202" stroke-width="0.2"/>
<path fill-rule="evenodd" clip-rule="evenodd" d="M220.33 32.5399H208.74V40.6099H219.18V43.6699H208.74V51.7399H220.33V54.8699H205.47V29.4199H220.33V32.5399Z" fill="#010202"/>
<path d="M220.33 32.5399H208.74V40.6099H219.18V43.6699H208.74V51.7399H220.33V54.8699H205.47V29.4199H220.33V32.5399Z" stroke="#010202" stroke-width="0.2"/>
<path fill-rule="evenodd" clip-rule="evenodd" d="M234.11 54.8601H230.84V32.5402H223.73V29.4102H241.22V32.5402H234.11V54.8601Z" fill="#010202"/>
<path d="M234.11 54.8601H230.84V32.5402H223.73V29.4102H241.22V32.5402H234.11V54.8601Z" stroke="#010202" stroke-width="0.2"/>
<path fill-rule="evenodd" clip-rule="evenodd" d="M253.87 54.8601H257.14V29.4102H253.87V54.8601Z" fill="#010202"/>
<path d="M253.87 54.8601H257.14V29.4102H253.87V54.8601Z" stroke="#010202" stroke-width="0.2"/>
<path fill-rule="evenodd" clip-rule="evenodd" d="M271.65 54.8601H268.38V32.5402H261.27V29.4102H278.76V32.5402H271.65V54.8601Z" fill="#010202"/>
<path d="M271.65 54.8601H268.38V32.5402H261.27V29.4102H278.76V32.5402H271.65V54.8601Z" stroke="#010202" stroke-width="0.2"/>
<path fill-rule="evenodd" clip-rule="evenodd" d="M295.61 49.4398C297.49 51.3498 299.8 52.2998 302.53 52.2998C305.25 52.2998 307.55 51.3498 309.44 49.4398C311.32 47.5298 312.27 45.0999 312.27 42.1399C312.27 39.1799 311.32 36.7398 309.44 34.8398C307.56 32.9298 305.25 31.9799 302.53 31.9799C299.8 31.9799 297.5 32.9398 295.62 34.8398C293.74 36.7398 292.79 39.1799 292.79 42.1399C292.79 45.0999 293.73 47.5298 295.61 49.4398ZM311.86 51.5699C309.35 54.1499 306.25 55.4298 302.53 55.4298C298.81 55.4298 295.7 54.1499 293.2 51.5699C290.7 48.9999 289.45 45.8599 289.45 42.1399C289.45 38.4199 290.7 35.2699 293.2 32.6999C295.7 30.1299 298.8 28.8398 302.52 28.8398C306.22 28.8398 309.32 30.1298 311.83 32.7098C314.34 35.2898 315.59 38.4299 315.59 42.1299C315.61 45.8599 314.36 48.9999 311.86 51.5699Z" fill="#010202"/>
<path d="M295.61 49.4398C297.49 51.3498 299.8 52.2998 302.53 52.2998C305.25 52.2998 307.55 51.3498 309.44 49.4398C311.32 47.5298 312.27 45.0999 312.27 42.1399C312.27 39.1799 311.32 36.7398 309.44 34.8398C307.56 32.9298 305.25 31.9799 302.53 31.9799C299.8 31.9799 297.5 32.9398 295.62 34.8398C293.74 36.7398 292.79 39.1799 292.79 42.1399C292.79 45.0999 293.73 47.5298 295.61 49.4398ZM311.86 51.5699C309.35 54.1499 306.25 55.4298 302.53 55.4298C298.81 55.4298 295.7 54.1499 293.2 51.5699C290.7 48.9999 289.45 45.8599 289.45 42.1399C289.45 38.4199 290.7 35.2699 293.2 32.6999C295.7 30.1299 298.8 28.8398 302.52 28.8398C306.22 28.8398 309.32 30.1298 311.83 32.7098C314.34 35.2898 315.59 38.4299 315.59 42.1299C315.61 45.8599 314.36 48.9999 311.86 51.5699Z" stroke="#010202" stroke-width="0.2"/>
<path fill-rule="evenodd" clip-rule="evenodd" d="M320.2 54.8601V29.4102H324.18L336.55 49.2002H336.69L336.55 44.3001V29.4102H339.83V54.8601H336.41L323.47 34.1002H323.33L323.47 39.0102V54.8601H320.2Z" fill="#010202"/>
<path d="M320.2 54.8601V29.4102H324.18L336.55 49.2002H336.69L336.55 44.3001V29.4102H339.83V54.8601H336.41L323.47 34.1002H323.33L323.47 39.0102V54.8601H320.2Z" stroke="#010202" stroke-width="0.2"/>
<path d="M450.61 76.21H442.7V129.23H450.61V76.21Z" fill="black"/>
<path fill-rule="evenodd" clip-rule="evenodd" d="M513.98 95.3096L504.91 118.3H504.63L495.22 95.3096H486.69L500.81 127.43L492.76 145.31H501.01L522.77 95.3096H513.98Z" fill="black"/>
<path fill-rule="evenodd" clip-rule="evenodd" d="M470.05 94.1504C464.32 94.1504 458.39 96.6704 455.93 102.27L462.95 105.2C464.45 102.27 467.25 101.31 470.18 101.31C474.27 101.31 478.43 103.77 478.5 108.13V108.68C477.06 107.86 474 106.64 470.25 106.64C462.67 106.64 454.97 110.8 454.97 118.57C454.97 125.67 461.18 130.24 468.14 130.24C473.45 130.24 476.39 127.85 478.23 125.05H478.5V129.14H486.14V108.81C486.15 99.4004 479.12 94.1504 470.05 94.1504Z" fill="black"/>
<path fill-rule="evenodd" clip-rule="evenodd" d="M420.94 76.21H401.98V129.23H409.891V109.14H420.94C429.71 109.14 438.331 102.79 438.331 92.67C438.331 82.56 429.71 76.21 420.94 76.21Z" fill="black"/>
<path fill-rule="evenodd" clip-rule="evenodd" d="M326.61 98.2704H326.34C324.56 96.1504 321.14 94.2305 316.85 94.2305C307.83 94.2305 299.56 102.16 299.56 112.34C299.56 122.45 307.83 130.31 316.85 130.31C321.15 130.31 324.57 128.4 326.34 126.22H326.61V128.81C326.61 135.71 322.92 139.4 316.98 139.4C312.13 139.4 309.12 135.92 307.89 132.98L300.99 135.85C302.97 140.63 308.23 146.51 316.98 146.51C326.28 146.51 334.13 141.04 334.13 127.72V95.3304H326.61V98.2704Z" fill="black"/>
<path fill-rule="evenodd" clip-rule="evenodd" d="M339.6 129.23H347.53V76.21H339.6V129.23Z" fill="black"/>
<path fill-rule="evenodd" clip-rule="evenodd" d="M383.81 105.72C382.31 101.69 377.73 94.2402 368.37 94.2402C359.08 94.2402 351.36 101.56 351.36 112.28C351.36 122.39 359.01 130.32 369.26 130.32C377.53 130.32 382.31 125.26 384.3 122.32L378.15 118.22C376.09 121.23 373.3 123.21 369.26 123.21C365.23 123.21 362.36 121.36 360.52 117.74L384.64 107.76L383.81 105.72Z" fill="black"/>
<path fill-rule="evenodd" clip-rule="evenodd" d="M191.65 99.7803V107.43H209.97C209.42 111.74 207.98 114.88 205.8 117.06C203.13 119.73 198.96 122.66 191.65 122.66C180.37 122.66 171.56 113.57 171.56 102.3C171.56 91.0303 180.38 81.9403 191.65 81.9403C197.73 81.9403 202.17 84.3303 205.45 87.4003L210.85 82.0003C206.27 77.6303 200.19 74.2803 191.65 74.2803C176.21 74.2803 163.23 86.8603 163.23 102.3C163.23 117.74 176.21 130.31 191.65 130.31C199.99 130.31 206.27 127.58 211.19 122.45C216.24 117.39 217.82 110.29 217.82 104.55C217.82 102.78 217.69 101.14 217.41 99.7703L191.65 99.7803Z" fill="black"/>
<path fill-rule="evenodd" clip-rule="evenodd" d="M94.27 84.5396L42.8999 33.2695C42.3099 34.4595 41.96 35.9195 41.96 37.6895V131.41C41.96 133.2 42.3199 134.69 42.9299 135.88L94.27 84.5396Z" fill="black"/>
<path fill-rule="evenodd" clip-rule="evenodd" d="M43.0498 32.9398C43.0698 32.8898 43.0998 32.8498 43.1298 32.7998C43.0998 32.8498 43.0798 32.8998 43.0498 32.9398Z" fill="black"/>
<path fill-rule="evenodd" clip-rule="evenodd" d="M97.24 81.57L113.06 65.75L52.74 31.48C51.03 30.5 49.42 30.04 47.9799 30.04C47.2499 30.04 46.58 30.17 45.96 30.4L97.24 81.57Z" fill="black"/>
<path fill-rule="evenodd" clip-rule="evenodd" d="M135.37 78.4299L116.88 67.9199L100.24 84.5599L116.88 101.16L135.37 90.6499C141.29 87.2999 141.29 81.7899 135.37 78.4299Z" fill="black"/>
<path fill-rule="evenodd" clip-rule="evenodd" d="M97.2803 87.54L46.1104 138.73C47.9404 139.35 50.2304 139.05 52.7404 137.63L113.1 103.32L97.2803 87.54Z" fill="black"/>
<path fill-rule="evenodd" clip-rule="evenodd" d="M43 136.04C43.24 136.48 43.51 136.88 43.82 137.22C43.51 136.86 43.22 136.48 43 136.04Z" fill="black"/>
<path d="M238.63 101.35C233.17 101.35 228.45 105.79 228.45 112.28C228.45 118.7 233.16 123.22 238.63 123.22C244.1 123.22 248.81 118.71 248.81 112.28C248.81 105.79 244.1 101.35 238.63 101.35Z" fill="white"/>
<path d="M288.31 112.28C288.31 105.79 283.6 101.35 278.13 101.35C272.67 101.35 267.95 105.79 267.95 112.28C267.95 118.7 272.66 123.22 278.13 123.22C283.6 123.22 288.31 118.7 288.31 112.28Z" fill="white"/>
<path fill-rule="evenodd" clip-rule="evenodd" d="M317.53 123.22C312.07 123.22 307.49 118.64 307.49 112.36C307.49 106 312.07 101.36 317.54 101.36C322.93 101.36 327.17 106.01 327.17 112.36C327.16 118.64 322.92 123.21 317.53 123.22Z" fill="#FBFBFB"/>
<path fill-rule="evenodd" clip-rule="evenodd" d="M421.14 101.76H409.88V83.5898H421.14C427.06 83.5898 430.42 88.4899 430.42 92.6699C430.41 96.7799 427.05 101.76 421.14 101.76Z" fill="white"/>
<path fill-rule="evenodd" clip-rule="evenodd" d="M359.21 111.74C359.01 104.77 364.61 101.22 368.65 101.22C371.79 101.22 374.46 102.8 375.34 105.05L359.21 111.74Z" fill="white"/>
<path fill-rule="evenodd" clip-rule="evenodd" d="M469.09 123.21C466.5 123.21 462.88 121.91 462.88 118.71C462.88 114.62 467.38 113.05 471.27 113.05C474.74 113.05 476.39 113.8 478.5 114.82C477.89 119.73 473.66 123.21 469.09 123.21Z" fill="#FBFBFB"/>
</g>
<defs>
<clipPath id="clip0_915_56">
<rect width="573" height="170" fill="white"/>
</clipPath>
</defs>
</svg>
