<svg width="80" height="80" viewBox="0 0 80 80" fill="none" xmlns="http://www.w3.org/2000/svg">
<rect width="80" height="80" rx="10" fill="#E9E9FB"/>
<path d="M39.9994 40C37.066 40 34.5549 38.9556 32.466 36.8667C30.3771 34.7778 29.3327 32.2667 29.3327 29.3334C29.3327 26.4 30.3771 23.8889 32.466 21.8C34.5549 19.7111 37.066 18.6667 39.9994 18.6667C42.9327 18.6667 45.4438 19.7111 47.5327 21.8C49.6216 23.8889 50.666 26.4 50.666 29.3334C50.666 32.2667 49.6216 34.7778 47.5327 36.8667C45.4438 38.9556 42.9327 40 39.9994 40ZM18.666 61.3334V53.8667C18.666 52.3556 19.0553 50.9671 19.834 49.7014C20.6127 48.4356 21.6456 47.4685 22.9327 46.8C25.6882 45.4222 28.4882 44.3894 31.3327 43.7014C34.1771 43.0134 37.066 42.6685 39.9994 42.6667C42.9327 42.6667 45.8216 43.0116 48.666 43.7014C51.5105 44.3911 54.3105 45.424 57.066 46.8C58.3549 47.4667 59.3887 48.4338 60.1674 49.7014C60.946 50.9689 61.3345 52.3574 61.3327 53.8667V61.3334H18.666ZM23.9993 56H55.9994V53.8667C55.9994 53.3778 55.8776 52.9334 55.634 52.5334C55.3905 52.1334 55.0678 51.8222 54.666 51.6C52.266 50.4 49.8438 49.5005 47.3994 48.9014C44.9549 48.3022 42.4882 48.0018 39.9994 48C37.5105 48 35.0438 48.3005 32.5994 48.9014C30.1549 49.5022 27.7327 50.4018 25.3327 51.6C24.9327 51.8222 24.61 52.1334 24.3647 52.5334C24.1193 52.9334 23.9976 53.3778 23.9993 53.8667V56ZM39.9994 34.6667C41.466 34.6667 42.722 34.1449 43.7674 33.1014C44.8127 32.0578 45.3345 30.8018 45.3327 29.3334C45.3327 27.8667 44.8109 26.6116 43.7674 25.568C42.7238 24.5245 41.4678 24.0018 39.9994 24C38.5327 24 37.2776 24.5227 36.234 25.568C35.1905 26.6134 34.6678 27.8685 34.666 29.3334C34.666 30.8 35.1887 32.056 36.234 33.1014C37.2794 34.1467 38.5345 34.6685 39.9994 34.6667Z" fill="#6868B8"/>
</svg>
